HIERARCHY
ROOT Hips
{
	OFFSET	0.00	0.00	0.00
	CHANNELS 6 Xposition Yposition Zposition Zrotation Xrotation Yrotation
	JOINT Spine
	{
		OFFSET	 0.00	0.01	 0.00
		CHANNELS 3 Zrotation Xrotation Yrotation
		JOINT Spine1
		{
			OFFSET	 0.00	 2.45913012437421	 0.00
			CHANNELS 3 Zrotation Xrotation Yrotation
            JOINT Neck
            {
                OFFSET	 0.00	 2.48462964506057	 0.00
                CHANNELS 3 Zrotation Xrotation Yrotation
                JOINT Head
                {
                    OFFSET	 0.00	 0.927524780924562	 0.00
                    CHANNELS 3 Zrotation Xrotation Yrotation
                    End Site 
                    {
                        OFFSET	 0.00	 1.14999962169752	 0.00
                    }
                }
            }
			JOINT LeftShoulder
			{
				OFFSET	 0.00	 2.48462964506057	 0.00
				CHANNELS 3 Zrotation Xrotation Yrotation
				JOINT LeftUpArm
				{
					OFFSET	 0.00	 1.24881979654096	 0.00
					CHANNELS 3 Zrotation Xrotation Yrotation
					JOINT LeftForeArm
					{
						OFFSET	 0.00	2.59758046908119	 0.00
						CHANNELS 3 Zrotation Xrotation Yrotation
						JOINT LeftHand
						{
							OFFSET	 0.00	2.45542024364365	 0.00
							CHANNELS 3 Zrotation Xrotation Yrotation
							JOINT LeftHandThumb 
							{
								OFFSET	 0.00	0.00	 0.00
								CHANNELS 3 Zrotation Xrotation Yrotation
								End Site
								{
									OFFSET	 0.00	0.00	1.00000003353624
								}
							}
							JOINT L_Wrist_End 
							{
								OFFSET	 0.00	0.99999967115358	 0.00
								CHANNELS 3 Zrotation Xrotation Yrotation
								End Site 
								{
									OFFSET	 0.00	 0.00	 0.00
								}
							}
						}
					}
				}
			}
			JOINT RightShoulder
			{
				OFFSET	 0.00	 2.48462964506057	 0.00
				CHANNELS 3 Zrotation Xrotation Yrotation
				JOINT RightUpArm
				{
					OFFSET	 0.00	 1.24881979654096	 0.00
					CHANNELS 3 Zrotation Xrotation Yrotation
					JOINT RightForeArm
					{
						OFFSET	 0.00	2.59758046908119	 0.00
						CHANNELS 3 Zrotation Xrotation Yrotation
						JOINT RightHand
						{
							OFFSET	 0.00	2.45542024364365	 0.00
							CHANNELS 3 Zrotation Xrotation Yrotation
							JOINT RightHandThumb 
							{
								OFFSET	 0.00	0.00	 0.00
								CHANNELS 3 Zrotation Xrotation Yrotation
								End Site
								{
									OFFSET	 0.00	0.00	1.00000003353624
								}
							}
							JOINT R_Wrist_End 
							{
								OFFSET	 0.00	0.99999967115358	 0.00
								CHANNELS 3 Zrotation Xrotation Yrotation
								End Site 
								{
									OFFSET	 0.00	 0.00	 0.00
								}
							}
						}
					}
				}
			}
		}
	}
	JOINT LeftUpLeg
	{
		OFFSET	 1.2719394002717	 0.00	 0.00
		CHANNELS 3 Zrotation Xrotation Yrotation
		JOINT LeftLowLeg
		{
			OFFSET	 0.00	-4.3429100912261	 0.00
			CHANNELS 3 Zrotation Xrotation Yrotation
			JOINT LeftFoot
			{
				OFFSET	 0.00	-4.48767017425826	 0.00
				CHANNELS 3 Zrotation Xrotation Yrotation
				JOINT LeftToeBase
                {
                    OFFSET	 0.00	0.00	 1.51507020887566
                    CHANNELS 3 Zrotation Xrotation Yrotation
                    End Site 
                    {
                        OFFSET	 0.00	0.00	 0.75000010571191
                    }
                }
			}
		}
	}
	JOINT RightUpLeg
	{
		OFFSET	 -1.2719393604653	 0.00	 0.00
		CHANNELS 3 Zrotation Xrotation Yrotation
		JOINT RightLowLeg
		{
			OFFSET	 0.00	-4.3429100912261	 0.00
			CHANNELS 3 Zrotation Xrotation Yrotation
			JOINT RightFoot
			{
				OFFSET	 0.00	-4.48767017425826	 0.00
				CHANNELS 3 Zrotation Xrotation Yrotation
				JOINT RightToeBase
                {
                    OFFSET	 0.00	0.00	 1.51507020887566
                    CHANNELS 3 Zrotation Xrotation Yrotation
                    End Site 
                    {
                        OFFSET	 0.00	0.00	 0.749999965609858
                    }
                }   
			}
		}
	}
}
MOTION 
Frames:	20 
Frame Time: 0.02 
  2.760780029296875 7.869359741210937 9.801909790039062 -150.717 80.3335 162.436 -0.965244 -9.29673 1.32996 -1.24986 13.7626 2.06183 16.7072 26.9696 -29.5643 27.414 -43.8059 33.4451 -106.5414 -3.12582 3.81282 -38.8363 20.3784 20.1776 0.0 97.6751 0.0 25.194 -11.0727 8.07259 0.0 0.0 0.0 0.0 0.0 0.0 107.1508 3.93144 -8.69739 5.05579 42.2821 -5.62474 0.0 89.1412 0.0 -13.0533 1.70558 8.24105 0.0 0.0 0.0 0.0 0.0 0.0 2.98286 -12.8987 -3.81971 0.0 11.5478 0.0 10.5634 7.08436 -0.518564 0.0 -35.2072 0.0 1.58855 -5.14231 -13.3847 0.0 5.34293 0.0 11.5865 9.54239 -9.37182 0.0 -26.032 0.0 
  2.7734600830078127 7.866199951171875 9.799949951171875 -150.669 80.2888 162.564 -1.16262 -9.25612 1.0716 -1.21434 14.102 1.85084 16.0699 26.4224 -29.0687 27.9981 -43.7119 33.3138 -106.6876 -3.25587 3.73553 -38.48 20.2859 19.6486 0.0 98.1043 0.0 25.5078 -11.2528 7.6932 0.0 0.0 0.0 0.0 0.0 0.0 107.166 3.78784 -8.37836 5.44234 40.0907 -6.79879 0.0 91.6002 0.0 -5.36966 5.50504 9.23967 0.0 0.0 0.0 0.0 0.0 0.0 2.82569 -13.0726 -4.65439 0.0 11.8243 0.0 10.5272 7.05767 0.0276898 0.0 -35.1115 0.0 1.54522 -5.0184 -13.7079 0.0 5.13978 0.0 11.6235 9.56926 -9.25619 0.0 -26.0532 0.0 
  2.7875201416015627 7.865460205078125 9.797410278320312 -150.784 80.0775 162.993 -1.32897 -9.19464 0.874338 -1.1602 14.0895 1.68963 15.3849 26.07 -28.5845 28.5175 -43.7169 32.9574 -106.8483 -3.1746 3.60952 -38.2329 20.0165 19.4087 0.0 98.565 0.0 25.7232 -11.3356 7.41217 0.0 0.0 0.0 0.0 0.0 0.0 107.16 3.58733 -8.27454 5.58111 37.4133 -8.61985 0.0 94.1983 0.0 -0.578399 4.98798 9.89194 0.0 0.0 0.0 0.0 0.0 0.0 2.65256 -13.4632 -5.52386 0.0 12.1173 0.0 10.4925 7.01639 0.469235 0.0 -35.0092 0.0 1.49323 -5.07801 -14.3049 0.0 4.98761 0.0 11.6092 9.57952 -9.02041 0.0 -26.0221 0.0 
  2.803580017089844 7.8646697998046875 9.794829711914062 -150.905 79.8212 163.53 -1.54556 -9.23193 0.657004 -0.9761 14.1752 1.52694 14.4706 25.5755 -28.022 29.0123 -43.6485 32.2928 -107.196304 -3.34834 3.97005 -37.7568 20.5716 18.9974 0.0 98.8669 0.0 25.8483 -11.3273 7.1147 0.0 0.0 0.0 0.0 0.0 0.0 107.0072 3.39222 -8.05706 5.65355 34.5854 -10.2617 0.0 95.5587 0.0 4.66631 4.62037 9.99408 0.0 0.0 0.0 0.0 0.0 0.0 2.45873 -13.9264 -6.36486 0.0 12.4307 0.0 10.513 6.98042 0.814986 0.0 -34.9634 0.0 1.42369 -5.19147 -15.0052 0.0 4.89594 0.0 11.626 9.564301 -8.77197 0.0 -26.061 0.0 
  2.820260009765625 7.863629760742188 9.792670288085937 -150.853 79.5657 163.975 -1.84227 -9.30018 0.36708 -0.593397 14.3066 1.31677 13.2634 25.231 -27.1534 29.6368 -43.706 31.5365 -107.5479 -3.44037 4.12178 -37.5595 20.9283 18.7263 0.0 99.1846 0.0 25.797 -11.3261 7.10019 0.0 0.0 0.0 0.0 0.0 0.0 106.6592 3.21349 -7.82248 5.65771 31.9046 -11.5813 0.0 95.4736 0.0 10.1588 4.15763 9.76992 0.0 0.0 0.0 0.0 0.0 0.0 2.27866 -14.4044 -7.08486 0.0 12.7532 0.0 10.5981 6.9480305 0.990429 0.0 -34.9719 0.0 1.37292 -5.2566 -15.916 0.0 4.73983 0.0 11.5541 9.62856 -8.42476 0.0 -26.0695 0.0 
  2.8378900146484374 7.863790283203125 9.791069946289063 -150.706 79.3047 164.307 -2.00982 -9.23515 0.279257 -0.405738 14.1921 1.27552 12.4608 24.8766 -26.7702 30.132 -43.8073 30.7821 -107.7126 -3.08 3.71232 -37.7474 20.5603 19.0213 0.0 99.6128 0.0 25.6073 -11.2715 7.2008 0.0 0.0 0.0 0.0 0.0 0.0 106.3566 2.63001 -7.50113 5.81568 29.5758 -12.756 0.0 93.9672 0.0 14.894 3.29359 8.80976 0.0 0.0 0.0 0.0 0.0 0.0 2.12314 -14.8824 -7.58848 0.0 13.0635 0.0 10.7293 6.9067802 1.00729 0.0 -35.0176 0.0 1.32658 -5.3742 -16.4922 0.0 4.66854 0.0 11.6287 9.64005 -8.31789 0.0 -26.0825 0.0 
  2.8565899658203127 7.864559936523437 9.7902197265625 -150.492 79.0668 164.586 -2.19717 -9.20647 0.111607 -0.194792 14.1383 1.15693 11.6475 24.6889 -26.2545 30.5925 -43.9399 30.1774 -107.9501 -2.9445 3.65321 -37.7905 20.6371 19.0727 0.0 99.9358 0.0 25.4873 -11.2966 6.96872 0.0 0.0 0.0 0.0 0.0 0.0 105.9696 2.12978 -7.05757 5.95829 27.7639 -13.7286 0.0 91.0728 0.0 18.5966 2.08123 7.59342 0.0 0.0 0.0 0.0 0.0 0.0 1.96647 -15.286 -8.09165 0.0 13.2715 0.0 10.8447 6.9065905 0.998071 0.0 -35.057602 0.0 1.27634 -5.49023 -16.9249 0.0 4.64465 0.0 11.7061 9.627729 -8.37808 0.0 -26.0905 0.0 
  2.8763299560546876 7.8657598876953125 9.789920043945312 -150.35 78.8405 164.946 -2.3922 -9.15911 -0.121298 -0.0409788 14.0244 0.969629 10.9467 24.5984 -25.7467 31.0235 -44.0593 29.7132 -108.1471 -2.91147 3.63324 -37.9023 20.7218 19.1219 0.0 100.219 0.0 25.4654 -11.3882 6.83148 0.0 0.0 0.0 0.0 0.0 0.0 105.603 1.70264 -6.51936 6.06573 26.529 -14.671 0.0 87.1571 0.0 20.6096 0.286811 5.84337 0.0 0.0 0.0 0.0 0.0 0.0 1.79567 -15.6392 -8.50175 0.0 13.3898 0.0 10.9953 6.9442596 0.898273 0.0 -35.1043 0.0 1.1973 -5.60661 -17.3982 0.0 4.63804 0.0 11.7687 9.626841 -8.41473 0.0 -26.1162 0.0 
  2.8964898681640623 7.865549926757812 9.78968994140625 -150.203 78.6771 165.252 -2.47167 -9.02112 -0.239886 -0.180213 13.7618 0.860892 10.7146 24.704 -25.5549 31.4708 -44.2599 29.607 -108.1458 -2.7923 3.84964 -38.0554 20.8507 19.1375 0.0 100.435 0.0 25.5479 -11.4626 6.96389 0.0 0.0 0.0 0.0 0.0 0.0 105.4031 1.23904 -6.04093 6.11288 25.7857 -15.4865 0.0 82.5787 0.0 20.34 -2.07396 2.38947 0.0 0.0 0.0 0.0 0.0 0.0 1.6484 -15.8976 -8.55992 0.0 13.4682 0.0 11.238 6.9437103 0.562296 0.0 -35.1655 0.0 1.10142 -5.67287 -17.9505 0.0 4.66922 0.0 11.8101 9.61858 -8.34042 0.0 -26.0973 0.0 
  2.918800048828125 7.867830200195312 9.789140014648437 -150.126 78.5298 165.518 -2.58006 -8.93706 -0.435322 -0.181297 13.6256 0.684308 10.163 24.7457 -25.0422 31.8578 -44.3594 29.3629 -108.228 -2.7587 3.95185 -38.2423 20.8695 19.1192 0.0 100.625 0.0 25.6069 -11.5208 6.80203 0.0 0.0 0.0 0.0 0.0 0.0 105.2099 1.0854 -5.62281 5.65787 25.7319 -15.7673 0.0 77.1209 0.0 19.6828 -3.42222 -2.45946 0.0 0.0 0.0 0.0 0.0 0.0 1.48768 -16.0967 -8.67206 0.0 13.4789 0.0 11.4253 6.97305 0.348707 0.0 -35.2682 0.0 0.979372 -5.7657 -18.4296 0.0 4.72024 0.0 11.8501 9.62611 -8.25361 0.0 -26.1416 0.0 
  2.9417898559570315 7.869310302734375 9.78926025390625 -150.023 78.4454 165.658 -2.64352 -8.89789 -0.578321 -0.309698 13.6189 0.546395 9.95985 24.7874 -24.7444 32.1347 -44.4092 29.4513 -108.2561 -2.71269 4.13321 -38.3477 20.9785 19.0048 0.0 100.725 0.0 25.4804 -11.6741 6.50249 0.0 0.0 0.0 0.0 0.0 0.0 105.0671 1.10853 -5.38435 5.16267 26.1781 -15.4225 0.0 71.1149 0.0 18.8635 -4.78747 -6.06623 0.0 0.0 0.0 0.0 0.0 0.0 1.34183 -16.2136 -8.61156 0.0 13.5065 0.0 11.6505 6.97322 0.104044 0.0 -35.304802 0.0 0.850893 -5.82852 -18.7475 0.0 4.81888 0.0 11.8991 9.6311 -8.23653 0.0 -26.124199 0.0 
  2.965459899902344 7.870999755859375 9.789500122070313 -149.917 78.4256 165.634 -2.67467 -8.88896 -0.640148 -0.447977 13.7448 0.485305 9.69015 24.7228 -24.4031 32.3493 -44.327 29.3674 -108.2529 -2.6549 4.29174 -38.4595 21.1578 18.9189 0.0 100.68 0.0 25.2633 -11.7955 6.16376 0.0 0.0 0.0 0.0 0.0 0.0 104.9428 1.36198 -5.16113 4.44903 26.9989 -14.8991 0.0 64.7692 0.0 17.2746 -6.24374 -9.20003 0.0 0.0 0.0 0.0 0.0 0.0 1.21703 -16.2278 -8.49303 0.0 13.5187 0.0 11.8501 6.97176 -0.0604558 0.0 -35.3692 0.0 0.711404 -5.86969 -18.7598 0.0 4.95279 0.0 12.0263 9.62798 -8.32043 0.0 -26.119099 0.0 
  2.989360046386719 7.873270263671875 9.789509887695312 -149.832 78.4502 165.495 -2.68827 -8.84824 -0.594702 -0.582879 13.8201 0.532094 9.58749 24.7021 -24.2532 32.4218 -44.2282 29.2652 -108.287796 -2.5509 4.36653 -38.508 21.3355 18.9942 0.0 100.514 0.0 25.0989 -11.9393 6.04754 0.0 0.0 0.0 0.0 0.0 0.0 104.8544 1.81882 -5.06198 3.70352 27.9707 -13.9976 0.0 58.222 0.0 14.9661 -7.6178 -12.5196 0.0 0.0 0.0 0.0 0.0 0.0 1.09767 -16.1876 -8.37879 0.0 13.5573 0.0 12.0002 6.94849 -0.110283 0.0 -35.3715 0.0 0.554814 -5.9304 -18.6616 0.0 5.1613 0.0 12.1323 9.61839 -8.39203 0.0 -26.1142 0.0 
  3.013699951171875 7.873590087890625 9.78906005859375 -149.797 78.5074 165.29 -2.69189 -8.83331 -0.469937 -0.669477 13.9423 0.66155 9.41431 24.6187 -24.1025 32.4016 -44.0833 29.0068 -108.3435 -2.50356 4.35802 -38.523 21.595 19.2868 0.0 100.223 0.0 25.1468 -11.9282 6.27615 0.0 0.0 0.0 0.0 0.0 0.0 104.7677 2.44138 -5.01674 2.96964 29.0181 -12.4591 0.0 51.702 0.0 12.5073 -8.11386 -17.0032 0.0 0.0 0.0 0.0 0.0 0.0 0.989895 -16.0599 -8.23444 0.0 13.5581 0.0 12.1374 6.9011497 -0.0666087 0.0 -35.3586 0.0 0.39647 -5.95031 -18.5636 0.0 5.32523 0.0 12.1751 9.64949 -8.37738 0.0 -26.151901 0.0 
  3.038299865722656 7.874509887695313 9.788809814453124 -149.875 78.542 165.123 -2.72492 -8.82726 -0.341059 -0.651037 14.0069 0.806237 9.26072 24.5516 -23.997 32.2605 -43.9432 28.748 -108.453 -2.50794 4.29679 -38.5371 21.8033 19.68 0.0 99.921 0.0 25.3133 -11.7937 6.84657 0.0 0.0 0.0 0.0 0.0 0.0 104.6051 3.12895 -5.13665 2.33981 30.0957 -10.3241 0.0 45.8687 0.0 9.09317 -8.38595 -22.0661 0.0 0.0 0.0 0.0 0.0 0.0 0.875009 -15.9173 -8.11866 0.0 13.4998 0.0 12.2369 6.87984 0.0707167 0.0 -35.3118 0.0 0.217166 -6.06332 -18.3232 0.0 5.59428 0.0 12.2123 9.63872 -8.43743 0.0 -26.1972 0.0 
  3.061300048828125 7.874869995117187 9.7889501953125 -149.937 78.5695 164.883 -2.67365 -8.76923 -0.0607338 -0.785825 13.9258 1.08146 9.47117 24.5251 -24.2676 32.061 -43.8287 28.5766 -108.4194 -2.40267 4.34866 -38.5673 22.0282 20.2002 0.0 99.6391 0.0 25.6145 -11.6811 7.3986 0.0 0.0 0.0 0.0 0.0 0.0 104.7168 3.61254 -5.27068 1.48039 31.1471 -7.71943 0.0 40.9257 0.0 5.56592 -8.10875 -27.0674 0.0 0.0 0.0 0.0 0.0 0.0 0.817306 -15.7638 -7.72475 0.0 13.4182 0.0 12.4047 6.82133 0.0250828 0.0 -35.3002 0.0 0.0518317 -6.19573 -18.2548 0.0 5.88059 0.0 12.2123 9.66815 -8.28976 0.0 -26.1674 0.0 
  3.0852301025390627 7.874149780273438 9.789609985351563 -150.073 78.6316 164.659 -2.64234 -8.75033 0.198298 -0.890049 13.9256 1.34108 9.73964 24.5114 -24.5579 31.8499 -43.7331 28.5291 -108.3908 -2.43735 4.40742 -38.5918 22.3083 20.6673 0.0 99.3841 0.0 25.7171 -11.65 7.75559 0.0 0.0 0.0 0.0 0.0 0.0 104.890396 4.11717 -5.2629 0.639162 32.2103 -4.71878 0.0 37.0755 0.0 2.18205 -7.78386 -31.3839 0.0 0.0 0.0 0.0 0.0 0.0 0.741299 -15.5156 -7.3816 0.0 13.2438 0.0 12.519 6.8123198 0.0619766 0.0 -35.288002 0.0 -0.150279 -6.33993 -18.03 0.0 6.23662 0.0 12.2831 9.694611 -8.20744 0.0 -26.191 0.0 
  3.1083200073242185 7.872689819335937 9.79093994140625 -150.192 78.6661 164.434 -2.597 -8.72101 0.449069 -1.02155 13.8457 1.58645 10.2441 24.6098 -25.0143 31.6455 -43.7242 28.727 -108.247604 -2.45567 4.33618 -38.7969 22.3547 21.2295 0.0 99.191 0.0 25.574 -11.7321 7.58958 0.0 0.0 0.0 0.0 0.0 0.0 105.1637 4.42415 -5.29206 -0.20184 33.3469 -1.35247 0.0 34.1509 0.0 -1.18006 -6.56312 -34.5542 0.0 0.0 0.0 0.0 0.0 0.0 0.695702 -15.2909 -6.83368 0.0 13.051 0.0 12.6792 6.7878 -0.0830969 0.0 -35.2795 0.0 -0.349757 -6.49247 -17.9582 0.0 6.56223 0.0 12.3545 9.80633 -7.96041 0.0 -26.289 0.0 
  3.1302700805664063 7.87010986328125 9.792520141601562 -150.354 78.707 164.207 -2.51807 -8.69799 0.693299 -1.24073 13.7542 1.81284 10.85 24.727 -25.5258 31.4619 -43.7137 29.012 -107.9927 -2.52927 4.22279 -39.0448 22.2941 21.8066 0.0 99.019 0.0 25.3284 -11.8618 7.30299 0.0 0.0 0.0 0.0 0.0 0.0 105.3898 4.72782 -5.45742 -0.869608 34.5764 2.53171 0.0 31.9013 0.0 -4.01376 -4.80718 -36.1817 0.0 0.0 0.0 0.0 0.0 0.0 0.667574 -14.968 -6.27008 0.0 12.6999 0.0 12.8143 6.79749 -0.209919 0.0 -35.2593 0.0 -0.553821 -6.68423 -17.558 0.0 6.96892 0.0 12.5151 9.84097 -7.91987 0.0 -26.375599 0.0 
  3.1519601440429685 7.8675299072265625 9.794550170898438 -150.46 78.8243 163.891 -2.47493 -8.59893 0.927322 -1.39369 13.6665 2.04028 11.484 24.8652 -26.0452 31.2873 -43.7632 29.4131 -107.8294 -2.5865 4.24176 -39.1677 22.2254 22.2487 0.0 98.9275 0.0 25.3524 -12.0017 6.9744 0.0 0.0 0.0 0.0 0.0 0.0 105.5299 4.93334 -5.56559 -1.27319 35.8949 6.3698 0.0 30.3884 0.0 -6.5079 -2.92253 -35.7724 0.0 0.0 0.0 0.0 0.0 0.0 0.643395 -14.5248 -5.62437 0.0 12.2689 0.0 12.9578 6.82821 -0.39569 0.0 -35.2481 0.0 -0.777498 -6.83558 -17.1552 0.0 7.44797 0.0 12.6931 9.86219 -7.81811 0.0 -26.4569 0.0 
